<?xml version="1.0" encoding="UTF-8" standalone="no"?>
<!-- Created with Inkscape (http://www.inkscape.org/) -->

<svg
   version="1.1"
   id="svg975"
   width="1024"
   height="1024"
   viewBox="0 0 1024 1024"
   xml:space="preserve"
   xmlns="http://www.w3.org/2000/svg"
   xmlns:svg="http://www.w3.org/2000/svg"><defs
     id="defs979"><clipPath
       clipPathUnits="userSpaceOnUse"
       id="clipPath2030"><g
         id="g2034"
         transform="translate(-967.33569,-622.78684)"><path
           d="M -5.0577095,984.33934 H 1494.9423 V -15.660656 H -5.0577095 Z"
           id="path2032" /></g></clipPath><clipPath
       clipPathUnits="userSpaceOnUse"
       id="clipPath2042"><g
         id="g2046"
         transform="translate(-1025.3446,-576.62704)"><path
           d="M -5.0577095,984.33934 H 1494.9423 V -15.660656 H -5.0577095 Z"
           id="path2044" /></g></clipPath><clipPath
       clipPathUnits="userSpaceOnUse"
       id="clipPath2048"><g
         id="g2052"
         transform="translate(-973.97979,-615.48534)"><path
           d="M -5.0577095,984.33934 H 1494.9423 V -15.660656 H -5.0577095 Z"
           id="path2050" /></g></clipPath><clipPath
       clipPathUnits="userSpaceOnUse"
       id="clipPath2054"><g
         id="g2058"
         transform="translate(-991.17289,-608.57594)"><path
           d="M -5.0577095,984.33934 H 1494.9423 V -15.660656 H -5.0577095 Z"
           id="path2056" /></g></clipPath><clipPath
       clipPathUnits="userSpaceOnUse"
       id="clipPath2102"><g
         id="g2106"
         transform="translate(-835.64889,-376.56084)"><path
           d="M -5.0577095,984.33934 H 1494.9423 V -15.660656 H -5.0577095 Z"
           id="path2104" /></g></clipPath><clipPath
       clipPathUnits="userSpaceOnUse"
       id="clipPath2108"><g
         id="g2112"
         transform="translate(-873.76329,-361.99334)"><path
           d="M -5.0577095,984.33934 H 1494.9423 V -15.660656 H -5.0577095 Z"
           id="path2110" /></g></clipPath><clipPath
       clipPathUnits="userSpaceOnUse"
       id="clipPath2144"><g
         id="g2148"
         transform="translate(-693.71749,-404.77594)"><path
           d="M -5.0577095,984.33934 H 1494.9423 V -15.660656 H -5.0577095 Z"
           id="path2146" /></g></clipPath><clipPath
       clipPathUnits="userSpaceOnUse"
       id="clipPath2162"><g
         id="g2166"
         transform="translate(-957.42949,-637.87374)"><path
           d="M -5.0577095,984.33934 H 1494.9423 V -15.660656 H -5.0577095 Z"
           id="path2164" /></g></clipPath><clipPath
       clipPathUnits="userSpaceOnUse"
       id="clipPath3272"><g
         id="g3278"><g
           id="g3276"><path
             d="M -5.0577095,984.33934 H 1494.9423 V -15.660656 H -5.0577095 Z"
             id="path3274" /></g></g></clipPath><clipPath
       clipPathUnits="userSpaceOnUse"
       id="clipPath3287"><g
         id="g3293"><g
           id="g3291"><path
             d="M -5.0577095,984.33934 H 1494.9423 V -15.660656 H -5.0577095 Z"
             id="path3289" /></g></g></clipPath><clipPath
       clipPathUnits="userSpaceOnUse"
       id="clipPath3302"><g
         id="g3308"><g
           id="g3306"><path
             d="M -5.0577095,984.33934 H 1494.9423 V -15.660656 H -5.0577095 Z"
             id="path3304" /></g></g></clipPath><clipPath
       clipPathUnits="userSpaceOnUse"
       id="clipPath3317"><g
         id="g3323"><g
           id="g3321"><path
             d="M -5.0577095,984.33934 H 1494.9423 V -15.660656 H -5.0577095 Z"
             id="path3319" /></g></g></clipPath><clipPath
       clipPathUnits="userSpaceOnUse"
       id="clipPath3332"><g
         id="g3338"><g
           id="g3336"><path
             d="M -5.0577095,984.33934 H 1494.9423 V -15.660656 H -5.0577095 Z"
             id="path3334" /></g></g></clipPath><clipPath
       clipPathUnits="userSpaceOnUse"
       id="clipPath3347"><g
         id="g3353"><g
           id="g3351"><path
             d="M -5.0577095,984.33934 H 1494.9423 V -15.660656 H -5.0577095 Z"
             id="path3349" /></g></g></clipPath><clipPath
       clipPathUnits="userSpaceOnUse"
       id="clipPath3362"><g
         id="g3368"><g
           id="g3366"><path
             d="M -5.0577095,984.33934 H 1494.9423 V -15.660656 H -5.0577095 Z"
             id="path3364" /></g></g></clipPath><clipPath
       clipPathUnits="userSpaceOnUse"
       id="clipPath3377"><g
         id="g3383"><g
           id="g3381"><path
             d="M -5.0577095,984.33934 H 1494.9423 V -15.660656 H -5.0577095 Z"
             id="path3379" /></g></g></clipPath><clipPath
       clipPathUnits="userSpaceOnUse"
       id="clipPath5720"><g
         id="g5726"><g
           id="g5724"
           transform="translate(39.80877,-80.14728)"><path
             d="M -5.0577095,984.33934 H 1494.9423 V -15.660656 H -5.0577095 Z"
             id="path5722" /></g></g></clipPath><clipPath
       clipPathUnits="userSpaceOnUse"
       id="clipPath5735"><g
         id="g5741"><g
           id="g5739"
           transform="translate(39.80877,-80.14728)"><path
             d="M -5.0577095,984.33934 H 1494.9423 V -15.660656 H -5.0577095 Z"
             id="path5737" /></g></g></clipPath><clipPath
       clipPathUnits="userSpaceOnUse"
       id="clipPath5750"><g
         id="g5756"><g
           id="g5754"
           transform="translate(39.80877,-80.14728)"><path
             d="M -5.0577095,984.33934 H 1494.9423 V -15.660656 H -5.0577095 Z"
             id="path5752" /></g></g></clipPath><clipPath
       clipPathUnits="userSpaceOnUse"
       id="clipPath5765"><g
         id="g5771"><g
           id="g5769"
           transform="translate(39.80877,-80.14728)"><path
             d="M -5.0577095,984.33934 H 1494.9423 V -15.660656 H -5.0577095 Z"
             id="path5767" /></g></g></clipPath><clipPath
       clipPathUnits="userSpaceOnUse"
       id="clipPath5780"><g
         id="g5786"><g
           id="g5784"
           transform="translate(39.8088,-80.14728)"><path
             d="M -5.0577095,984.33934 H 1494.9423 V -15.660656 H -5.0577095 Z"
             id="path5782" /></g></g></clipPath><clipPath
       clipPathUnits="userSpaceOnUse"
       id="clipPath5795"><g
         id="g5801"><g
           id="g5799"
           transform="translate(39.80877,-80.14728)"><path
             d="M -5.0577095,984.33934 H 1494.9423 V -15.660656 H -5.0577095 Z"
             id="path5797" /></g></g></clipPath><clipPath
       clipPathUnits="userSpaceOnUse"
       id="clipPath5810"><g
         id="g5816"><g
           id="g5814"
           transform="translate(39.80877,-80.14728)"><path
             d="M -5.0577095,984.33934 H 1494.9423 V -15.660656 H -5.0577095 Z"
             id="path5812" /></g></g></clipPath><clipPath
       clipPathUnits="userSpaceOnUse"
       id="clipPath6187"><g
         id="g6191"
         transform="translate(-765.90198,-527.32542)"><path
           d="M -207.59872,1036.2344 H 1292.4013 V 36.234415 H -207.59872 Z"
           id="path6189" /></g></clipPath><clipPath
       clipPathUnits="userSpaceOnUse"
       id="clipPath6181"><g
         id="g6185"
         transform="translate(-320.62508,-551.08172)"><path
           d="M -207.59872,1036.2344 H 1292.4013 V 36.234415 H -207.59872 Z"
           id="path6183" /></g></clipPath><clipPath
       clipPathUnits="userSpaceOnUse"
       id="clipPath6175"><g
         id="g6179"
         transform="translate(-633.05908,-506.44022)"><path
           d="M -207.59872,1036.2344 H 1292.4013 V 36.234415 H -207.59872 Z"
           id="path6177" /></g></clipPath><clipPath
       clipPathUnits="userSpaceOnUse"
       id="clipPath6169"><g
         id="g6173"
         transform="translate(-787.88048,-570.85811)"><path
           d="M -207.59872,1036.2344 H 1292.4013 V 36.234415 H -207.59872 Z"
           id="path6171" /></g></clipPath><clipPath
       clipPathUnits="userSpaceOnUse"
       id="clipPath6163"><g
         id="g6167"
         transform="translate(-624.52188,-386.59811)"><path
           d="M -207.59872,1036.2344 H 1292.4013 V 36.234415 H -207.59872 Z"
           id="path6165" /></g></clipPath><clipPath
       clipPathUnits="userSpaceOnUse"
       id="clipPath6109"><g
         id="g6113"
         transform="translate(-776.22308,-443.88522)"><path
           d="M -207.59872,1036.2344 H 1292.4013 V 36.234415 H -207.59872 Z"
           id="path6111" /></g></clipPath><clipPath
       clipPathUnits="userSpaceOnUse"
       id="clipPath6151"><g
         id="g6155"
         transform="translate(-409.73828,-602.56672)"><path
           d="M -207.59872,1036.2344 H 1292.4013 V 36.234415 H -207.59872 Z"
           id="path6153" /></g></clipPath><clipPath
       clipPathUnits="userSpaceOnUse"
       id="clipPath6145"><g
         id="g6149"
         transform="translate(-579.90308,-621.48532)"><path
           d="M -207.59872,1036.2344 H 1292.4013 V 36.234415 H -207.59872 Z"
           id="path6147" /></g></clipPath><clipPath
       clipPathUnits="userSpaceOnUse"
       id="clipPath6133"><g
         id="g6137"
         transform="translate(-782.88288,-559.83902)"><path
           d="M -207.59872,1036.2344 H 1292.4013 V 36.234415 H -207.59872 Z"
           id="path6135" /></g></clipPath><clipPath
       clipPathUnits="userSpaceOnUse"
       id="clipPath6127"><g
         id="g6131"
         transform="translate(-585.48818,-519.67261)"><path
           d="M -207.59872,1036.2344 H 1292.4013 V 36.234415 H -207.59872 Z"
           id="path6129" /></g></clipPath><clipPath
       clipPathUnits="userSpaceOnUse"
       id="clipPath6121"><g
         id="g6125"
         transform="translate(-404.98098,-513.19921)"><path
           d="M -207.59872,1036.2344 H 1292.4013 V 36.234415 H -207.59872 Z"
           id="path6123" /></g></clipPath><clipPath
       clipPathUnits="userSpaceOnUse"
       id="clipPath6115"><g
         id="g6119"
         transform="translate(-713.51678,-552.08802)"><path
           d="M -207.59872,1036.2344 H 1292.4013 V 36.234415 H -207.59872 Z"
           id="path6117" /></g></clipPath><clipPath
       clipPathUnits="userSpaceOnUse"
       id="clipPath6103"><g
         id="g6107"
         transform="translate(-332.85878,-567.35122)"><path
           d="M -207.59872,1036.2344 H 1292.4013 V 36.234415 H -207.59872 Z"
           id="path6105" /></g></clipPath><clipPath
       clipPathUnits="userSpaceOnUse"
       id="clipPath6097"><g
         id="g6101"
         transform="translate(-336.47468,-559.83601)"><path
           d="M -207.59872,1036.2344 H 1292.4013 V 36.234415 H -207.59872 Z"
           id="path6099" /></g></clipPath><clipPath
       clipPathUnits="userSpaceOnUse"
       id="clipPath6774"><g
         id="g6780"><g
           id="g6778"
           transform="translate(171.93196,-74.80876)"><path
             d="M -207.59872,1036.2344 H 1292.4013 V 36.234415 H -207.59872 Z"
             id="path6776" /></g></g></clipPath></defs><g
     id="g983"
     transform="matrix(1.3333333,0,0,-1.3333333,0,1333.3333)"><g
       id="g7357"
       transform="matrix(1.3736929,0,0,1.3736929,-591.84879,-17.857317)"><g
         id="g20"
         transform="translate(937.83394,452.51666)"
         clip-path="url(#clipPath6187)"
         style="fill:#ffcc00"><path
           d="m 0,0 c -4.92,-127.316 -112.119,-226.538 -239.435,-221.617 -127.317,4.92 -226.538,112.119 -221.618,239.435 4.921,127.316 112.119,226.538 239.436,221.617 C -94.301,234.515 4.92,127.316 0,0"
           style="fill:#ffcc00;fill-opacity:1;fill-rule:nonzero;stroke:none"
           id="path22" /></g><g
         id="g24"
         transform="translate(492.55704,476.27296)"
         clip-path="url(#clipPath6181)"
         style="fill:#ffcc00"><path
           d="m 0,0 c 25.831,-1.39 51.765,-0.546 77.549,1.328 21.12,1.536 42.177,3.842 63.169,6.613 32.299,4.263 64.549,8.49 97.091,10.514 24.025,1.495 47.97,1.697 72.024,1.238 22.83,-0.437 45.664,0.042 68.495,-0.082 21.698,-0.117 43.45,-0.733 65.023,-3.196 C 428.58,125.378 337.319,211.287 223.66,215.679 98.698,220.508 -6.872,125.009 -15.387,1.093 -10.245,0.629 -5.106,0.275 0,0"
           style="fill:#ffcc00;fill-opacity:1;fill-rule:nonzero;stroke:none"
           id="path26" /></g><g
         id="g28"
         transform="translate(804.99104,431.63146)"
         clip-path="url(#clipPath6175)"
         style="fill:#d4aa00"><path
           d="m 0,0 c 5.187,-3.113 2.389,-8.389 0.247,-12.449 1.352,-0.95 2.938,-1.51 4.579,-1.739 5.096,-0.711 10.448,0.888 15.21,2.543 5.859,2.037 11.483,4.729 17.027,7.493 4.787,2.387 9.502,4.94 14.363,7.178 6.157,2.834 12.877,4.524 19.523,5.742 8.871,1.625 17.991,2.172 26.976,1.291 6.27,-0.614 13.632,-1.49 18.645,-5.726 4.024,-3.399 5.13,-8.57 5.438,-13.603 0.459,-7.485 -0.057,-15.097 -1.354,-22.476 -0.755,-4.296 -1.826,-8.477 -3.12,-12.568 1.022,-0.219 2.037,-0.476 3.047,-0.773 7.118,20.768 11.371,42.907 12.262,65.972 0.491,12.697 -0.071,25.189 -1.576,37.404 -39.068,4.623 -78.788,2.963 -118.024,3.109 -23.535,0.087 -46.971,0.835 -70.507,-0.155 -24.914,-1.049 -49.771,-3.206 -74.527,-6.168 -20.263,-2.424 -40.439,-5.509 -60.714,-7.842 -23.484,-2.702 -47.061,-4.723 -70.688,-5.589 -21.566,-0.79 -43.285,-0.703 -64.795,1.379 -0.082,-1.437 -0.166,-2.875 -0.222,-4.32 -0.572,-14.807 0.281,-29.336 2.407,-43.469 4.587,-0.541 9.234,-0.569 13.843,-0.631 7.406,-0.099 14.797,-0.368 22.207,-0.298 8.463,0.08 16.922,0.34 25.383,0.533 12.805,0.29 25.59,-0.18 38.386,0.011 11.856,0.177 37.308,0.663 35.414,-17.029 6.213,-2.161 13.268,-1.196 19.594,-0.119 6.778,1.153 13.53,2.536 20.294,3.773 32.704,5.982 65.609,10.879 98.449,16.041 13.079,2.056 26.261,3.146 39.475,3.802 C -8.891,1.509 -3.497,2.099 0,0"
           style="fill:#d4aa00;fill-opacity:1;fill-rule:nonzero;stroke:none"
           id="path30" /></g><g
         id="g32"
         transform="translate(959.81244,496.04935)"
         clip-path="url(#clipPath6169)"
         style="fill:#aa0000"><path
           d="m 0,0 c -0.023,-3.734 -0.745,-7.571 -1.516,-11.673 -0.351,-1.878 -0.72,-3.835 -1.044,-5.895 -0.523,-3.334 -0.358,-6.194 -0.199,-8.959 0.382,-6.603 0.742,-12.84 -7.848,-23.181 -4.129,-4.97 -4.744,-9.546 -5.341,-13.972 -1.035,-7.694 -2.015,-14.96 -20.242,-20.61 -4.773,-1.478 -7.009,-7.421 -9.378,-13.715 -2.599,-6.906 -5.286,-14.046 -11.955,-15.392 -2.105,-0.426 -4.318,-2.718 -7.121,-5.621 -10.043,-10.403 -28.742,-29.759 -92.937,-18.05 -71.999,13.143 -95.023,-2.287 -99.104,-5.719 11.662,-33.636 68.578,-54.052 105.053,-45.379 13.876,3.303 26.111,4.37 37.942,5.402 32.385,2.823 60.355,5.261 102.033,55.791 C 11.301,-99.141 31.174,-55.012 0,0"
           style="fill:#aa0000;fill-opacity:1;fill-rule:nonzero;stroke:none"
           id="path34" /></g><g
         id="g36"
         transform="translate(796.45384,311.78935)"
         clip-path="url(#clipPath6163)"
         style="fill:#800000;fill-opacity:1"><path
           d="m 0,0 c -6.597,1.161 -13.13,2.955 -19.478,5.093 -6.174,2.08 -12.332,4.555 -17.898,7.974 -4.559,2.8 -9.534,6.694 -10.896,12.151 -1.468,5.883 2.2,11.597 7.181,14.462 6.173,3.551 13.872,4.036 20.829,4.224 6.44,0.173 12.86,0.168 19.291,0.627 4.607,0.329 9.204,0.828 13.777,1.484 -2.287,0.354 -4.615,0.737 -7.029,1.177 -71.998,13.143 -95.022,-2.287 -99.103,-5.719 11.662,-33.636 68.578,-54.052 105.053,-45.379 3.712,0.883 7.299,1.598 10.8,2.204 C 14.985,-1.811 7.439,-1.31 0,0"
           style="fill:#800000;fill-opacity:1;fill-rule:nonzero;stroke:none"
           id="path38" /></g><g
         id="g44"
         transform="translate(581.67024,527.75796)"
         clip-path="url(#clipPath6151)"
         style="fill:#aa0000"><path
           d="m 0,0 c -3.945,-3.61 -7.419,-6.802 -7.978,-11.679 6.601,2.696 15.913,6.333 25.86,9.708 8.086,5.604 6.547,11.849 5.412,16.421 -0.269,1.083 -0.502,2.018 -0.573,2.853 -0.182,2.115 1.489,4.852 4.265,9.107 1.442,2.212 5.599726,6.584732 3.905,7.164 -2.012,0.491 -7.797,-2.802 -12.147,-6.351 -0.546,-0.444 -1.302,-0.522 -1.925,-0.206 -0.627,0.319 -1.005,0.978 -0.966,1.679 0.29,5.127 -0.386,11.383 -1.983,12.551 -0.106,0.078 -0.286,0.209 -0.824,0.003 C 9.454,39.88 10.178,29.583 11.09,24.812 11.241,24.024 10.843,23.233 10.121,22.883 9.401,22.534 8.532,22.714 8.01,23.319 4.105,27.837 -2.943,33.639 -5.662,31.746 -6.022,31.495 -6.053,31.307 -6.055,31.121 -6.07,29.563 -3.211,25.663 4.892,19.795 L 5.151,19.608 C 7.635,17.555 10.79,12.08 5.534,5.596 3.863,3.534 1.899,1.737 0,0"
           style="fill:#aa0000;fill-opacity:1;fill-rule:nonzero;stroke:none"
           id="path46" /></g><g
         id="g48"
         transform="translate(751.83504,546.67656)"
         clip-path="url(#clipPath6145)"
         style="fill:#aa0000"><path
           d="m 0,0 c -4.379,-3.925 -7.403,-6.654 -8.166,-12.883 6.645,0.637 12.935,1.606 18.671,3.029 2.12,0.526 4.117,1.054 6.028,1.583 9.456,4.885 9.193,11.93 9.014,16.601 -0.031,0.775 -0.055,1.455 -0.033,2.017 0.082,2.122 2.08,4.63 5.363,8.508 1.707,2.016 6.178536,6.059426 4.765,6.623 -1.658611,0.748 -8.09,-1.812 -12.843,-4.792 -0.596,-0.372 -1.355,-0.358 -1.936,0.035 -0.58,0.395 -0.874,1.095 -0.748,1.786 0.924,5.051 1.032,11.342 -0.407,12.699 -0.096,0.091 -0.255,0.243 -0.818,0.106 C 15.147,34.397 14.589,24.091 14.906,19.244 14.96,18.443 14.467,17.708 13.708,17.451 12.946,17.194 12.11,17.477 11.665,18.146 8.35,23.114 2.06,29.742 -0.853,28.206 -1.242,28.002 -1.297,27.819 -1.322,27.635 -1.53,26.09 0.822,21.863 8.137,15.033 L 8.366,14.818 C 8.574,14.621 8.733,14.376 8.825,14.104 9.074,13.38 9.964,9.435 3.147,2.89 2.061,1.847 1.006,0.901 0,0"
           style="fill:#aa0000;fill-opacity:1;fill-rule:nonzero;stroke:none"
           id="path50" /></g><path
         d="m 602.46704,450.37925 c 1.494,-2.56 4.308,-5.779 7.581,-9.164 6.535,0.418 13.466,0.751 20.773,0.923 11.925,0.28 24.122,0.633 36.068,0.98 31.89,0.926 62.009,1.798 80.48,1.084 3.392,-0.131 6.754,0.135 10.051,0.662 -3.788,3.771 -7.075,7.886 -9.145,12.328 l 1.607,0.748 0.006,0.003 1.6,0.746 c 0.015,-0.034 0.036,-0.067 0.052,-0.101 4.845,-10.28 17.199,-19.071 26.23,-25.494 7.035,-5.003 10.444,-7.519 11.062,-10.012 2.05,-8.297 -6.327,-11.788 -13.853,-13.903 -7.453,-2.093 -15.262,-4.167 -21.618,-4.543 -12.813,-0.757 -22.8781,0.0131 -22.51713,-2.79002 0.67498,-2.07766 5.50781,-1.7047 5.50781,-1.7047 6.04896,0.21538 16.37332,-0.63428 18.50032,-3.26928 0.457,-0.568 0.624,-1.279 0.456,-1.95 -0.309,-1.232 -1.373,-1.88 -7.216,-4.972 -3.637,-1.925 -15.13248,-6.0136 -13.016,-8.327 2.518,-3.097 11.284,0.877 17.134,3.529 6.1,2.765 10.131,4.585 11.877,1.993 1.367,-2.036 1.158,-6.009 0.935,-10.216 -0.114,-2.146 -1.30916,-6.06297 0.066,-6.842 1.68792,-0.62536 2.707,4.43 3.694,8.147 1.315,4.952 2.805,10.562 6.89,12.633 10.241,5.187 37.117,25.674 35.542,29.886 -1.104,2.961 -7.484,9.107 -13.653,15.05 -6.807,6.56 -13.844,13.342 -16.833,18.458 -3.835,6.572 -2.538,12.133 -0.453,15.539 0.694,1.134 1.475,2.03 2.183,2.644 l 1.161,-1.339 v 0 0 l 1.169,-1.332 c -0.242,-0.215 -5.877,-5.369 -0.998,-13.725 0.274,-0.469 0.603,-0.965 0.96,-1.475 1.777,0.894 3.464,1.768 5.019,2.577 5.989,3.118 9.948,5.177 12.628,5.074 0.559,-0.022 1.191,-0.053 1.888,-0.088 7.175,-0.347 22.124,-1.095 35.737,5.661 18.39,9.13 46.799,10.089 69.075,2.33 15.528,-5.406 27.226,-14.548 34.074,-26.57 0.81,1.64 1.878,3.325 3.309,5.047 7.697,9.268 7.391,14.572 7.037,20.714 -0.17,2.951 -0.347,6.003 0.235,9.713 0.328,2.096 0.703,4.089 1.063,5.999 1.526,8.127 2.736,14.575 -1.203,21.12 -0.079,0.125 -0.15,0.242 -0.217,0.35 -2.713,4.496 -7.366,6.757 -11.471,8.752 -3.178,1.544 -5.922,2.877 -7.068,5.076 -1.179,2.26 -0.624,4.555 -0.088,6.775 0.707,2.929 1.437,5.958 -0.736,10.253 -2.629,5.197 -5.557,5.034 -9.612,4.817 -1.429,-0.077 -2.907,-0.159 -4.419,0.027 -3.707,0.454 -5.55,3.663 -7.176,6.495 -1.266,2.205 -2.462,4.288 -4.264,4.873 -2.109,0.685 -4.114,-0.384 -6.429,-1.63 -2.115,-1.138 -4.513,-2.428 -7.276,-2.321 -3.241,0.125 -4.79,2.924 -6.158,5.394 -1.606,2.901 -3.122,5.642 -7.008,6.099 -4.322,0.516 -7.72,-1.553 -10.989,-3.553 -2.632,-1.608 -5.118,-3.128 -7.878,-3.08 -2.413,0.038 -4.783,1.55 -7.277,3.148 -4.652,2.978 -7.982,4.742 -11.778,2.224 -1.998,-1.325 -3.451,-2.735 -4.858,-4.099 -4.004,-3.883 -7.462,-7.237 -19.438,-4.897 -7.281,1.421 -11.287,-0.472 -19.265,-4.243 -7.594,-3.592 -17.994,-8.51 -37.013,-13.227 -23.815,-5.909 -56.479,-4.25 -85.295,-2.783 -18.724,0.949 -34.892,1.773 -45.026,0.308 -25.413,-3.673 -66.989,-21.962 -67.407,-22.146 l -0.375,-0.166 -0.41,0.016 c -6.468,0.25 -13.387,2.045 -20.713,3.946 -21.266,5.517 -45.367,11.768 -74.194,-13.378 -17.271,-15.067 -24.546,-22.771 -24.883,-31.479 -0.306,-7.923 16.908,-18.217 36.116,-21.597 18.63,-3.277 38.833,-6.232 47.442,-3.293 2.953,1.006 5.827,1.368 8.527,1.264 6.348,-0.246 11.748,-3.061 15.035,-6.107 1.781,-1.644 12.681,-0.742 24.902,0.422 -4.133,3.988 -7.743,8.374 -9.961,13.133 l 3.213,1.497 c 0.016,-0.034 0.036,-0.068 0.052,-0.102 4.846,-10.279 17.197,-19.068 26.228,-25.491 7.037,-5.005 10.446,-7.521 11.064,-10.016 2.05,-8.298 -6.325,-11.788 -13.851,-13.901 -7.448,-2.093 -15.252,-4.167 -21.618,-4.543 -12.812,-0.757 -18.76339,-2.49036 -19.652,-4.262 -0.45279,-0.90274 0.97816,-1.81151 2.44745,-1.78767 5.913,0.195 16.56955,0.91667 18.69255,-1.71533 0.458,-0.569 0.625,-1.28 0.457,-1.951 -0.309,-1.231 -1.375,-1.879 -7.218,-4.973 -3.637,-1.924 -13.84212,-6.6943 -13.014,-8.324 1.93888,-3.1994 11.282,0.878 17.132,3.527 6.102,2.765 10.133,4.587 11.879,1.993 1.367,-2.036 1.02385,-4.77231 0.80085,-8.97831 -0.114,-2.149 -0.60308,-7.62066 0.99588,-8.75907 1.1212,-0.66726 3.09201,1.09693 4.07901,4.81393 1.315,4.95 1.62426,14.57645 5.70926,16.64745 10.241,5.186 37.118,25.671 35.544,29.885 -1.106,2.96 -7.482,9.105 -13.65,15.046 -6.808,6.561 -13.849,13.345 -16.838,18.463 -3.836,6.573 -2.536,12.134 -0.451,15.539 0.694,1.133 1.475,2.028 2.183,2.642 l 2.33,-2.67 c -0.242,-0.216 -5.879,-5.369 -1,-13.724"
         style="fill:#aa0000;fill-opacity:1;fill-rule:nonzero;stroke:none"
         id="path54"
         clip-path="url(#clipPath6774)" /><g
         id="g56"
         transform="translate(954.81484,485.03026)"
         clip-path="url(#clipPath6133)"
         style="fill:#800000"><path
           d="m 0,0 c 1.526,8.127 2.737,14.575 -1.203,21.12 -0.078,0.125 -0.15,0.242 -0.217,0.35 -2.02,3.348 -5.116,5.455 -8.26,7.137 0.832,-4.107 1.558,-8.236 2.177,-12.378 1.211,-8.097 2.912,-16.478 1.366,-24.644 -1.037,-5.478 -3.761,-11.72 -10.215,-11.495 -2.779,0.096 -5.527,1.026 -8.194,1.728 -4.046,1.064 -7.983,2.462 -11.968,3.727 -4.025,1.278 -8.122,2.382 -12.353,2.66 -2.387,0.157 -4.776,0.04 -7.145,-0.249 3.528,-0.769 6.984,-1.706 10.295,-2.859 15.527,-5.406 27.225,-14.548 34.074,-26.57 0.809,1.64 1.877,3.325 3.308,5.047 7.698,9.268 7.392,14.572 7.037,20.714 -0.17,2.951 -0.347,6.003 0.235,9.713 C -0.734,-3.903 -0.36,-1.91 0,0"
           style="fill:#800000;fill-opacity:1;fill-rule:nonzero;stroke:none"
           id="path58" /></g><g
         id="g60"
         transform="translate(757.42014,444.86385)"
         clip-path="url(#clipPath6127)"
         style="fill:#800000"><path
           d="m 0,0 c -3.788,3.772 -7.075,7.886 -9.146,12.328 l 0.154,0.072 c -1.688,-0.362 -3.385,-0.682 -5.104,-0.903 -10.334,-1.327 -20.056,0.891 -29.951,3.735 -11.063,3.179 -21.912,7.088 -33.071,9.937 -11.307,2.887 -22.721,4.211 -34.39,3.712 -10.713,-0.458 -21.27,-2.589 -31.303,-6.38 -4.554,-1.72 -8.879,-3.925 -13.188,-6.162 -1.101,-2.361 -1.729,-6.072 1.046,-10.824 1.494,-2.559 4.308,-5.778 7.581,-9.163 6.535,0.417 13.466,0.751 20.773,0.922 11.925,0.281 24.122,0.634 36.068,0.981 31.89,0.925 62.009,1.798 80.48,1.084 C -6.659,-0.792 -3.297,-0.526 0,0"
           style="fill:#800000;fill-opacity:1;fill-rule:nonzero;stroke:none"
           id="path62" /></g><g
         id="g64"
         transform="translate(576.91294,438.39045)"
         clip-path="url(#clipPath6121)"
         style="fill:#800000"><path
           d="m 0,0 c -3.956,3.818 -7.42,8.005 -9.656,12.531 -4.41,0.1 -8.835,0.652 -13.223,1.555 -5.54,1.14 -10.812,3.014 -16.213,4.64 -5.404,1.626 -11.13,1.385 -16.653,0.585 -10.398,-1.506 -20.462,-4.544 -31.055,-3.1 -8.955,1.22 -17.898,3.052 -26.415,6.121 -6.454,2.325 -13.077,5.473 -18.387,10.015 -0.236,-1.007 -0.38,-2.015 -0.419,-3.036 -0.307,-7.923 16.907,-18.217 36.115,-21.597 18.63,-3.278 38.833,-6.232 47.442,-3.293 2.954,1.006 5.827,1.368 8.528,1.263 6.347,-0.245 11.747,-3.06 15.034,-6.107 C -23.121,-2.067 -12.221,-1.165 0,0"
           style="fill:#800000;fill-opacity:1;fill-rule:nonzero;stroke:none"
           id="path66" /></g><g
         id="g68"
         transform="translate(885.44874,477.27926)"
         clip-path="url(#clipPath6115)"
         style="fill:#800000"><path
           d="M 0,0 C -6.172,2.758 -12.336,4.661 -19.058,5.522 -30.675,7.01 -42.482,6.285 -54.039,4.633 -65.283,3.026 -76.491,0.672 -87.506,-2.093 c -4.736,-1.189 -9.328,-2.814 -13.855,-4.615 l 0.7,-0.798 c -0.242,-0.215 -5.877,-5.369 -0.998,-13.725 0.274,-0.469 0.603,-0.965 0.96,-1.475 1.777,0.894 3.464,1.768 5.019,2.577 5.99,3.118 9.948,5.177 12.628,5.074 0.559,-0.022 1.192,-0.053 1.888,-0.088 7.175,-0.347 22.124,-1.095 35.737,5.661 13.796,6.849 33.228,9.099 51.481,6.521 C 4.061,-1.916 2.046,-0.914 0,0"
           style="fill:#800000;fill-opacity:1;fill-rule:nonzero;stroke:none"
           id="path70" /></g><g
         id="g76"
         transform="translate(504.79074,492.54246)"
         clip-path="url(#clipPath6103)"><path
           d="m 0,0 c 5.902,0.616 13.408,-2.308 19.092,-7.459 0.624,-0.567 0.672,-1.532 0.106,-2.158 -0.567,-0.624 -1.532,-0.673 -2.157,-0.106 -5.07,4.595 -11.637,7.214 -16.723,6.686 -4.501,-0.471 -11,-6.225 -13.125,-8.401 -0.314,-0.322 -0.736,-0.476 -1.152,-0.46 -0.365,0.014 -0.725,0.158 -1.007,0.433 -0.604,0.589 -0.616,1.555 -0.027,2.159 C -14.651,-8.955 -6.52,-0.682 0,0"
           style="fill:#000000;fill-opacity:1;fill-rule:nonzero;stroke:none"
           id="path78" /></g><g
         id="g80"
         transform="translate(508.40664,485.02725)"
         clip-path="url(#clipPath6097)"><path
           d="m 0,0 c -0.248,-2.918 -2.814,-5.083 -5.732,-4.835 -2.918,0.248 -5.083,2.814 -4.835,5.732 0.248,2.918 2.814,5.083 5.732,4.835 C -1.917,5.484 0.248,2.918 0,0"
           style="fill:#000000;fill-opacity:1;fill-rule:nonzero;stroke:none"
           id="path82" /></g></g></g></svg>
